Coordinates
version=1
nRows=12
nColumns=24
inDegrees=yes

Units are S.I. units (second, meters, Newtons, ...)
Angles are in degrees.

endheader
time	pelvis_tilt	pelvis_list	pelvis_rotation	pelvis_tx	pelvis_ty	pelvis_tz	hip_flexion_r	hip_adduction_r	hip_rotation_r	knee_angle_r	ankle_angle_r	subtalar_angle_r	mtp_angle_r	hip_flexion_l	hip_adduction_l	hip_rotation_l	knee_angle_l	ankle_angle_l	subtalar_angle_l	mtp_angle_l	lumbar_extension	lumbar_bending	lumbar_rotation
      1.81500000	    -11.77560954	      4.07650259	     -1.68859105	     -0.21397108	      0.73164984	     -0.26362674	     21.56768423	    -18.58584371	    -51.75741754	    -53.82176907	     51.86996372	     26.05318152	      0.00000000	     16.12934653	    -11.09728928	     41.91775282	     36.32047634	   -130.97045568	   -158.06545587	      0.00000000	    -12.75840455	      1.94593619	      2.92806957
      1.82333330	    -11.61978870	      4.03310451	     -1.84204758	     -0.21011652	      0.73163949	     -0.26400049	     21.10394007	    -18.50476064	    -51.58899832	    -53.70072854	     52.08506637	     26.04473677	      0.00000000	     15.85871354	    -11.33536182	     42.85538710	     36.50996443	   -130.90121843	   -157.15155872	      0.00000000	    -12.83852732	      1.84826642	      3.09201397
      1.83166670	    -11.46214192	      4.01135864	     -1.98343623	     -0.20622147	      0.73168966	     -0.26443883	     20.63381812	    -18.45743889	    -51.42252201	    -53.57922421	     52.27604589	     26.03524743	      0.00000000	     15.57561473	    -11.56058781	     43.83015951	     36.73200377	   -130.63881293	   -156.09319732	      0.00000000	    -12.92161022	      1.72834472	      3.23727246
      1.84000000	    -11.30311758	      4.00952744	     -2.11824039	     -0.20229124	      0.73180050	     -0.26492788	     20.15796439	    -18.44277517	    -51.26493518	    -53.45833353	     52.44523635	     26.02419191	      0.00000000	     15.28231391	    -11.77371531	     44.82096840	     36.97507286	   -130.25182950	   -154.95200257	      0.00000000	    -13.00777656	      1.58784459	      3.36595049
      1.84833330	    -11.14703243	      4.03174930	     -2.23580631	     -0.19833079	      0.73196030	     -0.26549297	     19.68533314	    -18.46369999	    -51.09808998	    -53.34437181	     52.56537507	     26.02229529	      0.00000000	     14.98560366	    -11.97219188	     45.83579703	     37.26063411	   -129.67502206	   -153.66951772	      0.00000000	    -13.09198589	      1.42285858	      3.46588274
      1.85666670	    -10.99401210	      4.08518667	     -2.34752606	     -0.19434820	      0.73216944	     -0.26612466	     19.21343808	    -18.53720464	    -50.94983343	    -53.23548088	     52.70882986	     26.01462170	      0.00000000	     14.68702676	    -12.12397818	     46.80604603	     37.54145397	   -128.96932335	   -152.39086271	      0.00000000	    -13.17505777	      1.22621863	      3.55470777
      1.86500000	    -10.86325541	      4.16616380	     -2.43045679	     -0.19037834	      0.73239556	     -0.26686430	     18.76502722	    -18.65933128	    -50.81384045	    -53.13649744	     52.83984662	     26.00947490	      0.00000000	     14.43488898	    -12.25261540	     47.84247833	     37.82993498	   -128.12463554	   -151.04311022	      0.00000000	    -13.23594174	      1.00814063	      3.60167071
      1.87333330	    -10.73742364	      4.26427419	     -2.50380410	     -0.18639665	      0.73266685	     -0.26765617	     18.31996772	    -18.80974069	    -50.68317075	    -53.04134462	     52.93753880	     26.00674014	      0.00000000	     14.18181039	    -12.35167713	     48.82667057	     38.12192515	   -127.20503439	   -149.73709609	      0.00000000	    -13.29615457	      0.77190878	      3.63210593
      1.88166670	    -10.60688574	      4.37260917	     -2.57423213	     -0.18237528	      0.73298728	     -0.26848482	     17.86461864	    -18.98245470	    -50.56490770	    -52.95237661	     52.99998744	     26.03457299	      0.00000000	     13.89672866	    -12.43481110	     49.73518550	     38.43545775	   -126.30320280	   -148.46166085	      0.00000000	    -13.36265119	      0.52611140	      3.64851588
      1.89000000	    -10.50275309	      4.50316998	     -2.61766835	     -0.17838487	      0.73331146	     -0.26940966	     17.43703032	    -19.19426141	    -50.46351560	    -52.86774235	     53.06409903	     26.02983035	      0.00000000	     13.66378626	    -12.48447930	     50.66964557	     38.73678863	   -125.28261405	   -147.23921806	      0.00000000	    -13.40566696	      0.26369089	      3.63302070
      1.89833330	    -10.40166817	      4.64714901	     -2.65945100	     -0.17438698	      0.73367676	     -0.27037744	     17.01184738	    -19.43234666	    -50.37000460	    -52.79171973	     53.08929418	     26.06824909	      0.00000000	     13.41666499	    -12.49557296	     51.50717716	     39.01924274	   -124.35830637	   -146.11078775	      0.00000000	    -13.44980751	     -0.01069642	      3.60879608
      1.90666670	    -10.31820399	      4.79820293	     -2.68915246	     -0.17040305	      0.73404364	     -0.27139482	     16.60848314	    -19.68900503	    -50.28695712	    -52.72655583	     53.09701864	     26.07650413	      0.00000000	     13.18165426	    -12.48635003	     52.29589411	     39.30050233	   -123.43528993	   -145.13994720	      0.00000000	    -13.47881537	     -0.29179997	      3.56629245
